<?xml version="1.0" encoding="utf-8"?>
<!-- Generator: Adobe Illustrator 16.0.4, SVG Export Plug-In . SVG Version: 6.00 Build 0)  -->
<!DOCTYPE svg PUBLIC "-//W3C//DTD SVG 1.1//EN" "http://www.w3.org/Graphics/SVG/1.1/DTD/svg11.dtd">
<svg version="1.1" id="Layer_1" xmlns="http://www.w3.org/2000/svg" xmlns:xlink="http://www.w3.org/1999/xlink" x="0px" y="0px"
	 width="70px" height="70px" viewBox="0 0 70 70" style="enable-background:new 0 0 70 70;" xml:space="preserve">
<style type="text/css">
<![CDATA[
	.st0{fill:#FFFFFF;}
]]>
</style>
<path class="st0" d="M37,69.2h-4.1c-0.2,0-0.4-0.1-0.7-0.1c-1.8-0.3-3.6-0.5-5.4-0.9c-13-3.1-23.3-14-25.5-27.2
	C1.2,39.7,1,38.3,0.8,37V33c0-0.2,0.1-0.4,0.1-0.7c0.3-1.8,0.5-3.6,0.9-5.4c3.1-13,14-23.3,27.2-25.5c1.3-0.2,2.6-0.4,3.9-0.6H37
	c0.2,0,0.4,0.1,0.7,0.1c1.8,0.3,3.6,0.5,5.4,0.9c13,3.1,23.3,14,25.5,27.2c0.2,1.3,0.4,2.6,0.6,3.9V37c0,0.2-0.1,0.4-0.1,0.7
	c-0.3,1.8-0.4,3.6-0.9,5.3c-3.1,13.1-14,23.3-27.2,25.6C39.7,68.8,38.4,69,37,69.2 M27.3,53.8c0.1-0.3,0.2-0.4,0.2-0.6
	c2.1-6.4,4.3-12.8,6.4-19.2c0.1-0.3,0.1-0.6,0-0.9c-1.5-4-2.9-8-4.4-12.1c-0.2-0.5-0.4-0.6-0.9-0.6c-0.9-0.1-1.8-0.1-2.6-0.3
	c-0.7-0.1-1.1-0.6-1-1.3c0.1-0.7,0.5-1.2,1.3-1.2c0.4,0,0.8,0,1.2,0.1c3.1,0.1,6.2,0.2,9.3,0.2c2,0,3.9-0.2,5.9-0.3
	c0.7,0,1.2,0.4,1.3,1.1c0.1,0.7-0.3,1.2-1,1.4c-0.3,0.1-0.6,0.1-0.9,0.1c-0.9,0.1-1.8,0.2-2.8,0.2c3.7,11,7.4,21.9,11.1,32.9
	c0.1-0.2,0.2-0.2,0.2-0.3c1.5-5.2,3.1-10.3,4.6-15.5c0.8-2.7,0.9-5.4,0.2-8.1c-0.6-2.2-1.8-4.2-3-6.2c-0.7-1.3-1.5-2.6-1.9-4.1
	c-0.9-3.3,1-6.4,4.2-7c0.3-0.1,0.6-0.1,1.1-0.1C47.9,5.6,39.2,3,29.2,4.8c-8.4,1.6-15,6.1-19.9,13.3c1.5,0,2.7,0,4,0
	c2.1-0.1,4.2-0.2,6.3-0.3c0.7,0,1.1,0.4,1.2,1c0.1,0.7-0.2,1.3-1,1.4c-0.3,0.1-0.6,0.1-0.9,0.1c-0.9,0.1-1.8,0.2-2.8,0.2
	C19.9,31.7,23.6,42.7,27.3,53.8 M26.3,64.4C31,66.3,42,66,45.1,63.9c-3.2-8.7-6.3-17.3-9.5-26c-0.1,0-0.1,0-0.2,0
	C32.4,46.7,29.4,55.6,26.3,64.4 M7,22.6c-3.6,8.4-3.7,16.7,0,25c3,6.7,7.9,11.7,14.4,15c0.1,0,0.1-0.1,0.2-0.1
	C16.7,49.2,11.8,35.9,7,22.6 M62,20.5c0,0.6,0.1,1.1,0.1,1.5c0,1.5,0,2.9-0.1,4.4c-0.3,2.9-1.2,5.6-2.2,8.3c-3,8.7-6,17.4-9,26
	c-0.1,0.2-0.1,0.5-0.2,0.8C65.2,53.1,69.7,34.1,62,20.5"/>
</svg>
